<svg xmlns="http://www.w3.org/2000/svg" viewBox="0 0 425.2 109.11"><defs><style>.cls-1{fill:#3e3a39;}.cls-2{fill:#c4b7b8;}</style></defs><g id="Layer_2" data-name="Layer 2"><g id="レイヤー_1" data-name="レイヤー 1"><path class="cls-1" d="M169.12,50.54a21.48,21.48,0,0,1,5,.59,21.1,21.1,0,0,1,4.69,1.72,14.91,14.91,0,0,1,4,3,6.35,6.35,0,0,1,1.8,4.52v9.43h-6.56V61.92a3.7,3.7,0,0,0-1.14-2.5,8.26,8.26,0,0,0-2.31-1.58,14.21,14.21,0,0,0-2.24-.78V69.94a9.61,9.61,0,0,1-1.55,5.62,9.32,9.32,0,0,1-3.58,3.16,9.79,9.79,0,0,1-4.2.94,9.23,9.23,0,0,1-4.06-1,9.84,9.84,0,0,1-3.63-3.16,9.21,9.21,0,0,1-1.6-5.59V60.41a6.5,6.5,0,0,1,1.73-4.52,13.88,13.88,0,0,1,4-3,20.92,20.92,0,0,1,4.69-1.72A21.46,21.46,0,0,1,169.12,50.54Zm-8.94,19.69a2.28,2.28,0,0,0,.51,1.53,3.33,3.33,0,0,0,1.09.9A2.64,2.64,0,0,0,163,73a3,3,0,0,0,1.24-.29,2.7,2.7,0,0,0,1.63-2.43V57.06a12.43,12.43,0,0,0-2.19.78,8.58,8.58,0,0,0-2.41,1.58,3.23,3.23,0,0,0-1.09,2.5Z"/><path class="cls-1" d="M14.49,51.42H32l-.39-3.6h7.64l.57,3.6H52.6v7.14H41l.45,3.93H52.6v7.2H42.53L43.32,75H35.45l-.62-5.34H14.49v-7.2H33.71l-.39-3.93H14.49ZM19,73.68h9.22l3.82,8.54h-9Z"/><path class="cls-1" d="M57.33,69.85l9-6.12V58.56h-9V51.42h9v-3.6H74v3.6H88.7a3.75,3.75,0,0,1,2.7,1.07,3.88,3.88,0,0,1,1.06,2.69c0,1.17-1.27,2.53-3.82,4.11l-2.75,1.8a17.36,17.36,0,0,1,2.86.11,3.91,3.91,0,0,1,3.55,4.21v3.94c0,2.28,2.34,3.13,7.13,2.53v7.64q-14.84.67-14.72-7.25V67.94q0-4.15-6.41-1.8L74,68.9V82.22H66.38V73.11l-9,6.41ZM79.86,58.56H74v4Z"/><path class="cls-1" d="M109.45,51.42V65.75a21.13,21.13,0,0,0,.31,4.25,7,7,0,0,0,1.55,3.45c.91,1,2.71,1.56,4.89,1.63h8.2v7.14H113.61a9.89,9.89,0,0,1-6.49-2.67,13.89,13.89,0,0,1-3.68-6A27.45,27.45,0,0,1,102.31,66V51.42Zm24.06,18.27V68.28a24.43,24.43,0,0,0-.31-4.64,6.82,6.82,0,0,0-1.77-3.45,5,5,0,0,0-3.54-1.63h-4.38V51.42h6.29a9.87,9.87,0,0,1,6.49,2.67,13.92,13.92,0,0,1,3.68,6,27.15,27.15,0,0,1,1.13,7.54v2.08Z"/><path class="cls-1" d="M235.4,63.33H208.2a2.34,2.34,0,0,0-1.77,1,6,6,0,0,0-1,2,10.24,10.24,0,0,0-.34,2.62,9.55,9.55,0,0,0,.34,2.55,6,6,0,0,0,1,2,2.16,2.16,0,0,0,1.77.9h18v7.81H208.54a9.42,9.42,0,0,1-6.5-2.14,12.64,12.64,0,0,1-3.65-5,17.24,17.24,0,0,1,0-12.2,13,13,0,0,1,3.65-5,10,10,0,0,1,6.47-2.3h.33a3.91,3.91,0,0,1,.68-.06h4V48h7.59v7.53H235.4Z"/><path class="cls-1" d="M240.14,48H263v7.53h-4.89a5.66,5.66,0,0,0-3.71,1.63,10.29,10.29,0,0,0-2.47,3.46,13.71,13.71,0,0,0-1.07,4,18.63,18.63,0,0,0,.25,5.06,6.43,6.43,0,0,0,2.31,3.46,6.79,6.79,0,0,0,4,1.6h5.17a5,5,0,0,0,3.54-1.63,6.85,6.85,0,0,0,1.77-3.46,12.55,12.55,0,0,0,.31-2.14v-11c-.11-1.76.21-3,1-3.71a3.67,3.67,0,0,1,5.28-.06L285.12,63.2V73.26l-9.4-9v3.88a18,18,0,0,1-1.12,5.42,14,14,0,0,1-3.68,6,9.89,9.89,0,0,1-6.5,2.67h-6.69c-4.15-.15-7.27-1.15-9.33-3a15.13,15.13,0,0,1-4.32-6.32,21.49,21.49,0,0,1-.85-8.32q.51-5.5,3.43-8.49c.19-.19.4-.37.62-.56h-7.14Zm27.22-2.87A4,4,0,1,1,268.54,48,3.91,3.91,0,0,1,267.36,45.12Zm9.67,0A4,4,0,1,1,278.21,48,3.91,3.91,0,0,1,277,45.12Z"/><path class="cls-1" d="M299.27,74.57h10.82a3.57,3.57,0,0,0,1.79-.52,3.18,3.18,0,0,0,1.06-1,2.28,2.28,0,0,0,.34-1.2,2.33,2.33,0,0,0-.34-1.2,3.15,3.15,0,0,0-1.06-1,3.57,3.57,0,0,0-1.79-.52H299.37a12.21,12.21,0,0,1-6.6-1.85,10.26,10.26,0,0,1-3.68-4,10.45,10.45,0,0,1-1.09-4.6V48h7.77V58.63a3.07,3.07,0,0,0,1.33,2.29,4.26,4.26,0,0,0,1.93.51h10.71a12,12,0,0,1,6.6,1.8,10.44,10.44,0,0,1,3.71,4,10.28,10.28,0,0,1,1.12,4.59A9.92,9.92,0,0,1,320,76.31a10.91,10.91,0,0,1-3.71,4,12.05,12.05,0,0,1-6.57,1.85h-.34a4,4,0,0,1-.69.06h-9.44ZM323.91,48v7.53H302.77V48Z"/><path class="cls-1" d="M27.42,18.05a.8.8,0,0,1,.34.64,17.28,17.28,0,0,1-1,8.74.8.8,0,0,1-1,.21c-.44-.13-.51-.47-.22-1a15,15,0,0,0,1-6.87l-6.75,3.53v7.8c.08.68,1.06,1,2.95.93l4.81-.17c.52,0,.79.23.8.74a.77.77,0,0,1-.72.74l-5.24.16c-1.77,0-2.9-.18-3.4-.7A2.17,2.17,0,0,1,18.4,31V24.13l-2.83,1.64a.87.87,0,0,1-1-.29.76.76,0,0,1,.27-1l3.55-2V18.3q0-.8.72-.78a.75.75,0,0,1,.72.76v3.33l6.86-3.49A.63.63,0,0,1,27.42,18.05Z"/><path class="cls-1" d="M37.52,17.09a21.42,21.42,0,0,1-3.63,15.52c-.4.42-.78.42-1.13,0a.67.67,0,0,1,.08-1A20.11,20.11,0,0,0,36,17.31c-.08-.54.13-.82.64-.86A.67.67,0,0,1,37.52,17.09Zm3-.78q.77,0,.78.72v13.9a24.39,24.39,0,0,0,5.13-5.38.67.67,0,0,1,1-.29.76.76,0,0,1,.28,1A30,30,0,0,1,41,33.08a.75.75,0,0,1-.82,0,.67.67,0,0,1-.35-.68V17.05C39.85,16.56,40.08,16.31,40.56,16.31Z"/><path class="cls-1" d="M62.14,18.16a.83.83,0,0,1,.08.67A24.31,24.31,0,0,1,51.79,33.27a.7.7,0,0,1-1-.27.64.64,0,0,1,.25-1,22.06,22.06,0,0,0,9.48-12.6L50,19.61a.69.69,0,0,1-.74-.74c0-.54.22-.79.74-.76l11.44-.22A.64.64,0,0,1,62.14,18.16Z"/><path class="cls-1" d="M82.83,32.53c0,.5-.28.74-.82.74H65.57c-.51-.05-.76-.29-.76-.74s.21-.74.78-.74H72V20.19H67.6q-.72,0-.72-.78a.64.64,0,0,1,.74-.72H78.09a.7.7,0,0,1,.76.74c0,.51-.28.76-.72.76H73.51v11.6H82A.76.76,0,0,1,82.83,32.53Z"/><path class="cls-1" d="M98.19,33.14a.91.91,0,0,1-1.09,0c-2.16-2.2-4-4.11-5.6-5.73a72.76,72.76,0,0,1-5,5.81.8.8,0,0,1-1,0q-.57-.7,0-1.14a51.48,51.48,0,0,0,9.34-13.33L86,18.83c-.49-.07-.73-.32-.73-.74s.18-.76.65-.75l9.9-.07a.76.76,0,0,1,.71.2.8.8,0,0,1,.07.79,55.83,55.83,0,0,1-4.29,7.94q3.22,3.19,5.85,5.85A.79.79,0,0,1,98.19,33.14Z"/><path class="cls-1" d="M116.6,22.53a.65.65,0,0,1-.72.72h-5.07a11.44,11.44,0,0,1-5.81,10,.77.77,0,0,1-1.09-.2.63.63,0,0,1,.17-1,14.28,14.28,0,0,0,3.82-3.85,7.6,7.6,0,0,0,1.37-4.95h-7.06a.67.67,0,0,1-.74-.74c0-.51.24-.76.74-.76h13.65C116.33,21.75,116.57,22,116.6,22.53ZM103,17.73a.65.65,0,0,1,.74-.74h10.12c.44,0,.69.26.76.76a.67.67,0,0,1-.76.73H103.75C103.28,18.48,103,18.23,103,17.73Z"/><path class="cls-1" d="M121.34,16.55q5.25,4.57,6,8.46,1.65-1.25,3.41-5.75c.15-.37.45-.5.92-.39s.59.44.41.93c-1.24,3.29-2.69,5.51-4.37,6.67l.39,1.58a.67.67,0,0,1-.55.86.77.77,0,0,1-.93-.63l-.2-.78a3.12,3.12,0,0,0-1.77,2.58c-.05,1,.54,1.61,1.77,1.82s2.64-.31,4.22-1.57c.37-.29.72-.2,1,.25a.75.75,0,0,1-.2,1q-3,2.3-5.65,1.63a3.06,3.06,0,0,1-2.67-3.15q.08-2.28,2.82-4.14-.73-4-5.55-8.21a.74.74,0,0,1-.12-1.07C120.55,16.27,120.9,16.23,121.34,16.55Z"/><path class="cls-1" d="M155,22.61a.65.65,0,0,1-.72.72h-9.41c-.66.83-1.08,1.38-1.29,1.66h8.85a.65.65,0,0,1,.74.74v6.9a.77.77,0,0,1-.72.72h-9.81c-.48-.06-.72-.31-.72-.74V26.76a28.49,28.49,0,0,1-2.85,2.48.89.89,0,0,1-1-.1c-.34-.39-.29-.76.16-1.11a33.2,33.2,0,0,0,4.83-4.7h-4.76a.65.65,0,0,1-.72-.72.66.66,0,0,1,.74-.76h15.93C154.74,21.85,155,22.1,155,22.61Zm-16.22-2.44V17.31a.74.74,0,1,1,1.48,0v2.1h5.33V15.92a.67.67,0,0,1,.74-.76c.5,0,.76.25.76.72v3.53h5.38v-2.1a.66.66,0,0,1,.76-.75c.49,0,.74.26.74.73v2.9a.65.65,0,0,1-.74.72H139.51A.64.64,0,0,1,138.79,20.17Zm12.91,6.3h-8.29v5.38h8.29Z"/><path class="cls-1" d="M159.48,24.24c.08-.44.15-.79.22-1h-1.29q-.72-.09-.72-.72a.66.66,0,0,1,.74-.76h1.39a15.71,15.71,0,0,0-.06-2.59,2.31,2.31,0,0,1-.78.25c-.5.07-.8-.1-.92-.48a.66.66,0,0,1,.55-.92,5.52,5.52,0,0,0,1.6-.84,3.09,3.09,0,0,0,1.15-2c.1-.53.38-.75.83-.64s.67.35.65.74a4.6,4.6,0,0,1-.66,2h3.58a.71.71,0,0,1,.76.72v3.76h.65c.48,0,.72.26.74.76s-.24.74-.72.72h-.67v2.56c0,.4-.12.64-.38.71a1.05,1.05,0,0,1-.77-.09l-.93-.5c-.43-.32-.52-.65-.28-1s.56-.54.94-.31V23.19h-1.38v1.66a.66.66,0,0,1-.75.74c-.49-.06-.74-.31-.74-.74V23.19h-1a10.87,10.87,0,0,1-.72,3c-.16.44-.48.56-1,.37a.71.71,0,0,1-.37-1A7.64,7.64,0,0,0,159.48,24.24Zm15.41,8.39c0,.51-.24.76-.72.76H159.29c-.48,0-.72-.25-.72-.76a.64.64,0,0,1,.74-.72h1.32V27.8a.68.68,0,0,1,.77-.77h10.74a.66.66,0,0,1,.74.75v4.13h1.27C174.58,31.91,174.82,32.15,174.89,32.63ZM161.34,21.71H165v-3h-3.84A25.31,25.31,0,0,1,161.34,21.71ZM161.9,20c-.26-.48-.17-.83.28-1s.87,0,1,.32L164,20.5c.26.51.17.85-.27,1a.82.82,0,0,1-1-.28Zm.24,11.93h1.91V28.54h-1.91Zm5.47-3.37h-2.06v3.37h2.06ZM175.08,19a4.45,4.45,0,0,1-.94,1,1.36,1.36,0,0,1-1.45,0,2.23,2.23,0,0,1-1.19-1.48,7,7,0,0,1-.3-1.88h-1.69a6.66,6.66,0,0,1-1.35,3.28.86.86,0,0,1-1.09.06.74.74,0,0,1-.1-1A4.1,4.1,0,0,0,168,16a.89.89,0,0,1,.18-.61.69.69,0,0,1,.56-.21h3.09a1,1,0,0,1,.5.14.53.53,0,0,1,.24.5,7,7,0,0,0,.26,2.3c.17.46.34.63.49.51a1.78,1.78,0,0,0,.42-.47.71.71,0,0,1,1.11-.15A.75.75,0,0,1,175.08,19Zm-7.17,6.16a4.32,4.32,0,0,0,1.62-.58l-1.15-1c-.34-.29-.34-.66,0-1.09a.75.75,0,0,1,1.09,0l1.21,1.07a9.28,9.28,0,0,0,1-1.67h-3.08c-.48,0-.72-.26-.72-.76a.64.64,0,0,1,.74-.72h4.17a.89.89,0,0,1,.67.27.54.54,0,0,1,.09.66,12.52,12.52,0,0,1-1.69,3,13.72,13.72,0,0,0,2.35,1.31.65.65,0,0,1,.38.94c-.25.44-.56.59-.94.44a13.56,13.56,0,0,1-2.91-1.56A5,5,0,0,1,168,26.55a.73.73,0,0,1-.82-.65C167.17,25.45,167.4,25.2,167.91,25.14Zm3.49,3.4h-2.3v3.37h2.3Z"/><path class="cls-1" d="M191.34,19.26,190.68,32c-.07.78-.38,1.19-.94,1.24l-9.65.16a.69.69,0,0,1-.74-.74.65.65,0,0,1,.72-.74l9.12-.16.26-5.32-7.39-.06c-.43,0-.64-.26-.64-.76a.65.65,0,0,1,.74-.74l7.35.08.27-4.95-9.92.15c-.47,0-.71-.27-.73-.78s.25-.71.74-.72l10.69-.23C191.11,18.45,191.37,18.72,191.34,19.26Z"/><path class="cls-1" d="M204.88,33.08c-.24.32-.69.39-1.32.19a3.65,3.65,0,0,1-1.85-1.49,15.59,15.59,0,0,1-1-2,.73.73,0,0,1,.37-1,.85.85,0,0,1,1,.45,8.79,8.79,0,0,0,1.17,2.09q.33.48.54.48c.14,0,.24-.09.29-.29q2.51-4.25,2.48-10.9l-3.43.06a14.49,14.49,0,0,1-6.53,11.84.75.75,0,0,1-1-.28.61.61,0,0,1,.22-1,13.28,13.28,0,0,0,5.87-10.55H196.4c-.49-.05-.74-.3-.74-.74s.24-.75.76-.74h5.26c0-.87,0-1.77-.07-2.69,0-.55.15-.83.56-.84s.72.17.84.66a13.6,13.6,0,0,1,.18,2.79h4a.91.91,0,0,1,.52.15.71.71,0,0,1,.24.61A20.74,20.74,0,0,1,204.88,33.08Zm5.33-15.81v4.56a.72.72,0,0,1-.77.74.69.69,0,0,1-.74-.76V17.29c0-.52.25-.78.74-.76S210.21,16.8,210.21,17.27Zm1.94,0v4.56a.7.7,0,0,1-.76.74.69.69,0,0,1-.74-.76V17.29c0-.52.25-.78.74-.76S212.15,16.8,212.15,17.27Z"/><path class="cls-1" d="M228.51,29a16,16,0,0,1-6,4.35.78.78,0,0,1-1.07-.29.67.67,0,0,1,.27-1q4.5-2.31,5.92-4.83a6.5,6.5,0,0,0,.87-4.77,4.14,4.14,0,0,0-2.45-3.06,5.83,5.83,0,0,0-4-.24,8.44,8.44,0,0,0-3.67,2.16,4.77,4.77,0,0,0-1.45,3.9c.11,1.54.53,2.54,1.25,3s1.48.29,2.27-.52S222,25,222.59,22q.09-.89.72-.84.8.09.66.78-1,6-2.91,7.33a3.2,3.2,0,0,1-3.74.22q-1.84-1.1-2-4.37c-.13-2.17.85-4.12,2.92-5.82a7.94,7.94,0,0,1,7.2-1.63,6.08,6.08,0,0,1,4.92,5.2A8.89,8.89,0,0,1,228.51,29Z"/><path class="cls-1" d="M250,17.56c0,.51-.26.76-.72.76H236q1,8.45-1.87,14.35a.81.81,0,0,1-1,.27.76.76,0,0,1-.27-1,27.47,27.47,0,0,0,1.6-14.23.8.8,0,0,1,.14-.65.77.77,0,0,1,.62-.23h6.28V15.49a.68.68,0,0,1,.74-.76c.44,0,.69.24.76.72v1.39h6.3A.66.66,0,0,1,250,17.56Zm-1.25,8.21v6.9a.65.65,0,0,1-.72.74H237.63a.65.65,0,0,1-.72-.74V25.79c0-.5.25-.74.76-.74h3.64V19.43a.68.68,0,0,1,.74-.76c.5,0,.74.25.74.72v1.93h4.33a.65.65,0,0,1,.74.72c0,.51-.24.76-.72.76h-4.35v2.25H248C248.43,25.05,248.67,25.29,248.74,25.77Zm-1.48.76h-8.87v5.4h8.87Z"/><path class="cls-1" d="M254.47,28.2a2.17,2.17,0,0,1,2.4,2.44A2.09,2.09,0,0,1,254.49,33a2.16,2.16,0,0,1-2.38-2.32A2.14,2.14,0,0,1,254.47,28.2Zm0,3.46a1,1,0,0,0,1.06-1c0-.74-.37-1.11-1.08-1.11s-1,.37-1,1.11A.92.92,0,0,0,254.49,31.66Z"/><path class="cls-2" d="M425.19,38.45c.12-9-2.44-16.65-7.61-22.68A42.4,42.4,0,0,0,400.8,3.56a52.48,52.48,0,0,0-38,0A42.36,42.36,0,0,0,346,15.77c-5.17,6-7.73,13.66-7.61,22.68V96.71H0v12.4H425.19Zm-12.4,58.26h-62V38.32c-.09-6,1.42-10.74,4.62-14.48a29.67,29.67,0,0,1,11.88-8.72,40,40,0,0,1,29,0,29.67,29.67,0,0,1,11.88,8.72c3.2,3.74,4.71,8.47,4.62,14.48Z"/><path class="cls-2" d="M396.35,64.35a8.18,8.18,0,1,1,8.18-8.18A8.19,8.19,0,0,1,396.35,64.35Zm0-12.12a3.94,3.94,0,1,0,3.93,3.94A3.94,3.94,0,0,0,396.35,52.23Z"/></g></g></svg>